<svg xmlns="http://www.w3.org/2000/svg" width="1253" height="985" viewBox="0 0 1253 985">
<defs><marker id="arrow" viewBox="0 0 8 8" refX="7" refY="4" markerWidth="7" markerHeight="7" orient="auto-start-reverse"><path d="M0 0 L8 4 L0 8 z" fill="#8b8b94"/></marker></defs>
<rect x="0" y="0" width="1253" height="985" fill="#0d0d0f"/>
<rect x="24" y="24" width="1205" height="937" fill="#1b1b1e" stroke="#2f2f34" rx="6"/>
<text x="44" y="56" fill="#d0a14b" font-family="Inter, sans-serif" font-size="15" font-weight="600">nvk mission — filing wiring</text>
<polyline points="484,189 484,246 484,246 484,303" fill="none" stroke="#9c86b4" stroke-width="1.4" marker-end="url(#arrow)"/>
<text x="484" y="240" fill="#a2a2aa" font-family="Inter, sans-serif" font-size="11" text-anchor="middle">create --id --title --owner [--team-name] [--task --agent] [--dry-run]</text>
<polyline points="484,465 484,500 484,500 484,535" fill="none" stroke="#9c86b4" stroke-width="1.4" marker-end="url(#arrow)"/>
<text x="484" y="494" fill="#a2a2aa" font-family="Inter, sans-serif" font-size="11" text-anchor="middle">readStoreDir(dir), then appendLine(missions|teams|tasks.jsonl, raw, baselinePath)</text>
<polyline points="484,731 484,766 354,766 354,801" fill="none" stroke="#78a886" stroke-width="1.4" marker-end="url(#arrow)"/>
<text x="419" y="760" fill="#a2a2aa" font-family="Inter, sans-serif" font-size="11" text-anchor="middle">validateCandidate vs STORE_KINDS + KIND_RULES</text>
<polyline points="484,731 484,780 704,780 704,829" fill="none" stroke="#7a756b" stroke-width="1.4" marker-end="url(#arrow)"/>
<text x="594" y="774" fill="#a2a2aa" font-family="Inter, sans-serif" font-size="11" text-anchor="middle">append raw+LF (SC5)</text>
<polyline points="484,731 484,780 969,780 969,829" fill="none" stroke="#7a756b" stroke-width="1.4" marker-end="url(#arrow)"/>
<text x="726.5" y="774" fill="#a2a2aa" font-family="Inter, sans-serif" font-size="11" text-anchor="middle">enrollBaselineId(id)</text>
<polyline points="979,693 979,761 704,761 704,829" fill="none" stroke="#8b93a3" stroke-dasharray="9 4 2 4" stroke-width="1.4" marker-end="url(#arrow)"/>
<text x="841.5" y="755" fill="#a2a2aa" font-family="Inter, sans-serif" font-size="11" text-anchor="middle">auditDir(dir)</text>
<polyline points="979,693 979,761 969,761 969,829" fill="none" stroke="#8b93a3" stroke-dasharray="9 4 2 4" stroke-width="1.4" marker-end="url(#arrow)"/>
<text x="974" y="755" fill="#a2a2aa" font-family="Inter, sans-serif" font-size="11" text-anchor="middle">fingerprint + id compare</text>
<rect x="869" y="829" width="200" height="64" fill="#252529" stroke="#2f2f34" rx="6"/>
<text x="883" y="853" fill="#ececee" font-family="Inter, sans-serif" font-size="13" font-weight="600">gate baseline</text>
<text x="1055" y="853" fill="#a2a2aa" font-family="Inter, sans-serif" font-size="9" text-anchor="end" letter-spacing="1">RESOURCE</text>
<rect x="64" y="80" width="280" height="153" fill="none" stroke="#2f2f34" stroke-dasharray="4 4" rx="6"/>
<text x="78" y="106" fill="#a2a2aa" font-family="Georgia, serif" font-size="13" font-style="italic">One verb replaces the three</text>
<text x="78" y="127" fill="#a2a2aa" font-family="Georgia, serif" font-size="13" font-style="italic">hand-built JSON lines per mission</text>
<text x="78" y="148" fill="#a2a2aa" font-family="Georgia, serif" font-size="13" font-style="italic">filing: mission + team + optional</text>
<text x="78" y="169" fill="#a2a2aa" font-family="Georgia, serif" font-size="13" font-style="italic">task rows, validated refs,</text>
<text x="78" y="190" fill="#a2a2aa" font-family="Georgia, serif" font-size="13" font-style="italic">baseline enrollment.</text>
<rect x="604" y="829" width="200" height="64" fill="#252529" stroke="#2f2f34" rx="6"/>
<text x="618" y="853" fill="#ececee" font-family="Inter, sans-serif" font-size="13" font-weight="600">.novakai/stores</text>
<text x="790" y="853" fill="#a2a2aa" font-family="Inter, sans-serif" font-size="9" text-anchor="end" letter-spacing="1">RESOURCE</text>
<rect x="274" y="303" width="420" height="162" fill="#252529" stroke="#2f2f34" rx="6"/>
<text x="288" y="327" fill="#ececee" font-family="Inter, sans-serif" font-size="13" font-weight="600">nvk-mission CLI</text>
<text x="680" y="327" fill="#a2a2aa" font-family="Inter, sans-serif" font-size="9" text-anchor="end" letter-spacing="1">MODULE</text>
<text x="288" y="347" fill="#a2a2aa" font-family="Inter, sans-serif" font-size="11">scripts/nvk-mission.mjs — thin adapter: parse flags, build</text>
<text x="288" y="363" fill="#a2a2aa" font-family="Inter, sans-serif" font-size="11">rows, order appends mission-&gt;team-&gt;tasks, map errors to exit</text>
<text x="288" y="379" fill="#a2a2aa" font-family="Inter, sans-serif" font-size="11">0/1/2</text>
<text x="288" y="403" fill="#ececee" font-family="Inter, sans-serif" font-size="12">create(flags) → filedRows</text>
<rect x="384" y="125" width="200" height="64" fill="#252529" stroke="#2f2f34" rx="6"/>
<text x="398" y="149" fill="#ececee" font-family="Inter, sans-serif" font-size="13" font-weight="600">Operator</text>
<text x="570" y="149" fill="#a2a2aa" font-family="Inter, sans-serif" font-size="9" text-anchor="end" letter-spacing="1">RUNTIME</text>
<rect x="144" y="801" width="420" height="120" fill="#252529" stroke="#2f2f34" rx="6"/>
<text x="158" y="825" fill="#ececee" font-family="Inter, sans-serif" font-size="13" font-weight="600">Schema law</text>
<text x="550" y="825" fill="#a2a2aa" font-family="Inter, sans-serif" font-size="9" text-anchor="end" letter-spacing="1">MODULE</text>
<text x="158" y="845" fill="#a2a2aa" font-family="Inter, sans-serif" font-size="11">src/backend/stores/schema.mjs + validate.mjs — STORE_KINDS,</text>
<text x="158" y="861" fill="#a2a2aa" font-family="Inter, sans-serif" font-size="11">KIND_RULES, ref law, M1 task authority</text>
<rect x="274" y="535" width="420" height="196" fill="#252529" stroke="#2f2f34" rx="6"/>
<text x="288" y="559" fill="#ececee" font-family="Inter, sans-serif" font-size="13" font-weight="600">Store engine</text>
<text x="680" y="559" fill="#a2a2aa" font-family="Inter, sans-serif" font-size="9" text-anchor="end" letter-spacing="1">MODULE</text>
<text x="288" y="579" fill="#a2a2aa" font-family="Inter, sans-serif" font-size="11">src/backend/stores/store.mjs — locked, snapshot-validated,</text>
<text x="288" y="595" fill="#a2a2aa" font-family="Inter, sans-serif" font-size="11">SC5 byte-verified append-only writer</text>
<text x="288" y="619" fill="#ececee" font-family="Inter, sans-serif" font-size="12">readStoreDir(dir) → Snapshot</text>
<text x="288" y="645" fill="#ececee" font-family="Inter, sans-serif" font-size="12">appendLine(dir, storeFile, rawLine, opts) → AppendResult</text>
<text x="288" y="671" fill="#8b8b94" font-family="Inter, sans-serif" font-size="11">AppendResult { id, storeFile, bytesAppended }</text>
<rect x="769" y="573" width="420" height="120" fill="#252529" stroke="#2f2f34" rx="6"/>
<text x="783" y="597" fill="#ececee" font-family="Inter, sans-serif" font-size="13" font-weight="600">Stores gate</text>
<text x="1175" y="597" fill="#a2a2aa" font-family="Inter, sans-serif" font-size="9" text-anchor="end" letter-spacing="1">MODULE</text>
<text x="783" y="617" fill="#a2a2aa" font-family="Inter, sans-serif" font-size="11">tools/gates/stores.mjs — drift ratchet: violation</text>
<text x="783" y="633" fill="#a2a2aa" font-family="Inter, sans-serif" font-size="11">fingerprints + id inventory</text>
</svg>
